<svg width="200" height="77" viewBox="0 0 200 77" fill="none" xmlns="http://www.w3.org/2000/svg">
<g clip-path="url(#clip0_1174_473)">
<path d="M59.3317 15.677C60.8136 16.3228 62.0628 17.1772 63.0789 18.2402C61.3564 16.3502 59.1551 14.7353 56.4753 13.3955L38.6887 4.80362C33.7094 2.64373 28.5506 2.85592 23.2123 5.44022C15.7034 9.5092 9.23513 14.4724 3.80749 20.3299C0.152052 24.2738 -0.871293 29.4204 0.737458 35.7696L4.77145 54.3466C5.50568 56.7596 6.19177 58.7034 6.8297 60.1785C5.586 56.8702 6.40802 52.3681 9.2957 46.6719C9.96445 45.5566 10.6567 44.4666 11.3724 43.4019C14.1962 39.1938 18.4215 34.5511 24.0483 29.474C27.0174 26.7938 29.9611 24.4655 32.8789 22.4891C36.0349 20.3501 39.4619 18.4128 43.1602 16.6774C44.1928 16.1919 45.2366 15.7828 46.2919 15.4501C47.176 15.1736 48.0679 14.9502 48.9681 14.7801C50.8651 14.4242 52.7072 14.3262 54.4947 14.4863C56.2545 14.6421 57.8668 15.039 59.3317 15.677Z" fill="url(#paint0_linear_1174_473)"/>
<path d="M61.4143 66.3741C62.2539 65.9898 63.0099 65.5483 63.6826 65.0494C60.3805 66.5434 55.539 65.5715 49.1582 62.1337L11.3738 43.4009C10.6581 44.4656 9.96586 45.5556 9.29714 46.6711C6.40944 52.3671 5.58744 56.8694 6.83112 60.1775C7.02601 60.6283 7.23761 61.0645 7.46586 61.486C7.47022 61.4934 7.47567 61.503 7.4822 61.5143C8.4818 63.3413 9.87267 64.9815 11.6548 66.4347C14.009 68.3473 16.8831 70.0628 20.2772 71.5811C22.8482 72.7324 26.2005 73.9605 30.3341 75.2658C32.7426 76.0354 34.8294 76.47 36.5948 76.57C38.6369 76.6834 40.6569 76.3924 42.6543 75.6968L61.4143 66.3741Z" fill="url(#paint1_linear_1174_473)"/>
<path d="M63.08 18.24C62.0638 17.177 60.8149 16.3226 59.333 15.6768C57.8681 15.0388 56.2557 14.6419 54.4959 14.4861C52.7085 14.3261 50.8662 14.424 48.9694 14.7799C48.0691 14.9501 47.177 15.1734 46.293 15.4499C51.3804 31.6658 52.3355 47.2273 49.1579 62.1343C55.5387 65.5722 60.3802 66.5441 63.6823 65.0501C66.0421 63.2877 67.5255 60.8218 68.1323 57.6522C69.0553 52.8867 69.3332 47.1722 68.9662 40.5084C68.6436 34.6186 67.9283 29.3745 66.8198 24.776C66.5991 23.8622 66.2606 22.9711 65.8045 22.1028C65.4485 21.4207 64.9574 20.6466 64.3317 19.7807C63.9485 19.2475 63.5313 18.734 63.08 18.24Z" fill="url(#paint2_linear_1174_473)"/>
<path d="M41.4657 27.0452C40.6785 27.3367 39.9751 27.745 39.3557 28.2697C38.7142 28.8163 38.153 29.4797 37.6719 30.2595C37.191 31.032 36.7572 31.9212 36.3711 32.9271L36.207 27.7886L35.9883 27.1873L35.387 27.0233H34.1406V51.4908H36.4913V35.6712L37.6938 32.7412C38.1238 31.8884 38.6268 31.1814 39.2025 30.6203C39.8002 30.0444 40.4598 29.6144 41.1815 29.3301C41.9174 29.0386 42.7557 28.8929 43.6959 28.8929L46.1996 29.2318C46.4181 29.2318 46.5676 29.1042 46.6479 28.8491L46.8445 27.2093L45.5436 26.7391L44.0568 26.6188C43.0947 26.6188 42.2308 26.761 41.4657 27.0452ZM67.9774 29.4286C67.1102 28.5103 66.0862 27.8105 64.9055 27.3295C63.7174 26.8703 62.4347 26.6408 61.057 26.6408C59.3298 26.6408 57.7772 26.9433 56.3998 27.5482C55.0368 28.1603 53.8853 29.0022 52.9451 30.0735C51.9974 31.145 51.2759 32.4169 50.7804 33.8891C50.2702 35.3761 50.0151 37.0014 50.0151 38.7652C50.0151 40.8425 50.2847 42.6827 50.824 44.2861C51.3562 45.9042 52.1104 47.2744 53.0872 48.3969C54.0783 49.512 55.2627 50.3576 56.6402 50.9333C58.0179 51.5163 59.5374 51.808 61.1991 51.808L63.9653 51.5346L66.5125 50.8239L68.6664 49.7088C69.3223 49.2933 69.8434 48.8378 70.2296 48.3422L69.6066 47.555L69.1036 47.3146L66.8404 48.6374L64.5883 49.5448C63.6772 49.7999 62.6132 49.9276 61.3959 49.9276C60.0185 49.9276 58.7685 49.6978 57.6462 49.2386C56.531 48.7576 55.5798 48.0433 54.7925 47.0959C54.0055 46.1484 53.3968 44.9786 52.9668 43.5865C52.5515 42.1944 52.3438 40.5873 52.3438 38.7652V38.2842H70.1313L70.6342 38.0873L70.7872 37.3439C70.7872 35.6312 70.5393 34.1114 70.0438 32.785C69.5264 31.4584 68.8376 30.3397 67.9774 29.4286ZM66.5564 30.6203C67.2268 31.3418 67.7479 32.2237 68.1196 33.2661C68.484 34.3082 68.6664 35.4852 68.6664 36.7973H52.464C52.6098 35.5144 52.9049 34.352 53.3496 33.3097C53.7796 32.2893 54.3625 31.411 55.0987 30.675C55.8349 29.9388 56.7023 29.3703 57.7008 28.9695C58.6919 28.5686 59.8181 28.3682 61.0789 28.3682C62.2015 28.3682 63.2255 28.5686 64.151 28.9695C65.084 29.3556 65.8857 29.9061 66.5564 30.6203ZM76.4504 30.4999L76.8876 31.1997L77.1719 31.5386L77.6093 31.6588C77.8644 31.6588 78.1668 31.4912 78.5166 31.1559L79.9379 30.0735L82.0262 28.9912C82.857 28.6705 83.8664 28.5103 85.0545 28.5103C86.9568 28.5103 88.3962 29.1188 89.373 30.3361C90.3496 31.5531 90.8379 33.2914 90.8379 35.551V38.1201C88.0683 38.1784 85.6996 38.408 83.7317 38.8088C81.7419 39.1952 80.1238 39.7163 78.8774 40.3722C77.6166 41.0282 76.6872 41.7971 76.0896 42.6791C75.4991 43.5756 75.204 44.5376 75.204 45.5652C75.204 46.6805 75.39 47.6388 75.7617 48.4405C76.1259 49.2278 76.6217 49.8765 77.2485 50.3867C77.8534 50.8969 78.5496 51.2722 79.3366 51.5127C80.1166 51.7533 80.9255 51.8735 81.7636 51.8735C82.7696 51.8735 83.6879 51.7788 84.5187 51.5893C85.3496 51.3925 86.1259 51.1118 86.8474 50.7473L88.9355 49.4246L90.9362 47.6535L91.297 50.7912C91.4064 51.2576 91.7089 51.4908 92.2045 51.4908H93.1447V35.551C93.1447 34.188 92.977 32.9527 92.6417 31.8448C92.321 30.7442 91.8328 29.8076 91.1768 29.035C90.5353 28.2552 89.7191 27.6576 88.7279 27.242C87.7513 26.8265 86.6068 26.6188 85.2949 26.6188C83.5019 26.6188 81.8985 26.9469 80.4847 27.6029C79.0779 28.2588 77.7332 29.2246 76.4504 30.4999ZM78.2542 43.1382C78.7791 42.4603 79.5881 41.8737 80.6813 41.378C81.7674 40.8825 83.1521 40.4925 84.8357 40.2082C86.5121 39.9314 88.5128 39.7454 90.8379 39.6508V46.0682L89.1104 47.6971L87.1864 49.0201C86.5157 49.3844 85.7796 49.6725 84.9779 49.8837C84.1762 50.0878 83.3053 50.1899 82.3651 50.1899L80.5064 49.9056C79.9162 49.7308 79.3985 49.4501 78.954 49.0637C78.5021 48.6776 78.1413 48.1891 77.8717 47.5988C77.6019 46.9939 77.4672 46.2833 77.4672 45.4669C77.4672 44.5995 77.7296 43.8233 78.2542 43.1382ZM103.509 15.708H101.158V51.4908H103.509V15.708Z" fill="white"/>
<path d="M125.255 27.0233H122.926V51.4908H125.255V27.0233ZM114.366 15.708H112.016V51.4908H114.366V15.708ZM126.097 17.7524L125.616 17.0309L124.916 16.5826L124.085 16.4077L123.265 16.5826L122.566 17.0309L122.085 17.7524L121.921 18.5943L122.085 19.4142L122.566 20.0811L123.265 20.5621L124.085 20.7261L124.916 20.5621L125.616 20.0811L126.097 19.4142L126.261 18.5943L126.097 17.7524ZM150.958 27.1873L150.641 27.6248L142.529 46.9318L141.906 49.0637L141.304 46.9318L133.236 27.6248L132.919 27.2093L132.372 27.0233H130.525L140.845 51.4908H142.911L153.243 27.0233H151.461L150.958 27.1873ZM174.715 29.4286C173.848 28.5103 172.823 27.8105 171.643 27.3295C170.455 26.8703 169.172 26.6408 167.794 26.6408C166.067 26.6408 164.515 26.9433 163.137 27.5482C161.774 28.1603 160.622 29.0022 159.682 30.0735C158.735 31.145 158.013 32.4169 157.518 33.8891C157.007 35.3761 156.752 37.0014 156.752 38.7652C156.752 40.8425 157.022 42.6827 157.561 44.2861C158.093 45.9042 158.848 47.2744 159.824 48.3969C160.816 49.512 162 50.3576 163.378 50.9333C164.755 51.5163 166.275 51.808 167.936 51.808L170.702 51.5346L173.25 50.8239L175.403 49.7088C176.059 49.2933 176.581 48.8378 176.967 48.3422L176.344 47.555L175.841 47.3146L173.578 48.6374L171.326 49.5448C170.415 49.7999 169.351 49.9276 168.133 49.9276C166.756 49.9276 165.506 49.6978 164.383 49.2386C163.268 48.7576 162.317 48.0433 161.53 47.0959C160.743 46.1484 160.134 44.9786 159.704 43.5865C159.289 42.1944 159.081 40.5873 159.081 38.7652V38.2842H176.869L177.371 38.0873L177.525 37.3439C177.525 35.6312 177.277 34.1114 176.781 32.785C176.263 31.4584 175.575 30.3397 174.715 29.4286ZM173.293 30.6203C173.964 31.3418 174.485 32.2237 174.857 33.2661C175.221 34.3082 175.403 35.4852 175.403 36.7973H159.201C159.347 35.5144 159.642 34.352 160.087 33.3097C160.517 32.2893 161.1 31.411 161.836 30.675C162.572 29.9388 163.439 29.3703 164.438 28.9695C165.429 28.5686 166.555 28.3682 167.816 28.3682C168.939 28.3682 169.963 28.5686 170.888 28.9695C171.821 29.3556 172.623 29.9061 173.293 30.6203ZM186.424 29.8112C186.934 29.3739 187.557 29.0278 188.293 28.7727C189.015 28.5176 189.824 28.3899 190.72 28.3899C191.697 28.3899 192.528 28.4956 193.213 28.7071L194.951 29.3959L196.077 30.0954L196.766 30.3797C197.007 30.3797 197.192 30.2703 197.324 30.0518L197.826 29.2318C196.865 28.3499 195.808 27.6939 194.656 27.2639C193.505 26.8484 192.185 26.6408 190.698 26.6408C189.445 26.6408 188.315 26.8156 187.309 27.1654C186.318 27.5371 185.469 28.0256 184.762 28.6305C184.077 29.2427 183.541 29.9461 183.155 30.7405C182.791 31.5422 182.608 32.3767 182.608 33.2442C182.608 34.2646 182.798 35.1135 183.177 35.7914C183.578 36.4765 184.099 37.0522 184.74 37.5188C185.382 37.9999 186.103 38.4008 186.905 38.7214L191.901 40.3503L194.077 41.3125C194.718 41.6914 195.232 42.1469 195.618 42.6791C196.019 43.2256 196.219 43.9071 196.219 44.7235C196.219 45.4597 196.085 46.1629 195.815 46.8335C195.538 47.4895 195.137 48.0652 194.612 48.561C194.095 49.0565 193.446 49.4501 192.666 49.7416C191.865 50.0259 190.95 50.168 189.922 50.168C188.822 50.168 187.903 50.0331 187.167 49.7635L185.265 48.9216L184.073 48.0799C183.767 47.8101 183.501 47.6752 183.275 47.6752L182.849 47.7737L182.575 48.0799L182.029 48.8997C183.02 49.7963 184.132 50.5142 185.363 51.0535C186.61 51.6001 188.1 51.8735 189.835 51.8735C191.212 51.8735 192.429 51.6803 193.486 51.2939C194.558 50.9005 195.454 50.3648 196.176 49.6869C196.912 49.0165 197.469 48.2256 197.848 47.3146C198.22 46.4035 198.406 45.4086 198.406 44.3299C198.406 43.3605 198.213 42.5297 197.826 41.8371C197.426 41.152 196.912 40.5691 196.285 40.088C195.651 39.6069 194.926 39.2061 194.109 38.8854L189.113 37.2237L186.927 36.2944C186.3 35.9371 185.786 35.5035 185.385 34.9933C185.006 34.4831 184.817 33.8418 184.817 33.0693C184.817 32.4497 184.951 31.8593 185.221 31.298C185.513 30.7222 185.913 30.2267 186.424 29.8112Z" fill="#10DCF6"/>
<path d="M90.2642 61.0985C89.0617 61.0985 88.1068 61.5029 87.4 62.3121C86.6855 63.1138 86.3285 64.1961 86.3285 65.5591C86.3285 66.8272 86.6674 67.8404 87.3453 68.5985C88.0157 69.3491 88.9268 69.7244 90.0785 69.7244C91.4559 69.7244 92.4691 69.298 93.1176 68.4453C93.7736 67.5925 94.1017 66.5176 94.1017 65.2202C94.1017 63.8644 93.73 62.8368 92.9866 62.1372C92.2431 61.4446 91.3357 61.0985 90.2642 61.0985ZM88.3619 63.2414C88.7483 62.6072 89.3678 62.2902 90.2206 62.2902C91.1825 62.2902 91.8604 62.6619 92.254 63.4053C92.5019 63.8791 92.6257 64.4951 92.6257 65.2529C92.6257 66.0838 92.4544 66.8419 92.1119 67.527C91.7621 68.2121 91.1278 68.5546 90.2095 68.5546C89.3642 68.5546 88.7483 68.2668 88.3619 67.691C87.9757 67.1153 87.7825 66.3972 87.7825 65.5372C87.7825 64.6408 87.9757 63.8755 88.3619 63.2414ZM84.131 61.328L81.8678 67.9314L79.6157 61.328H78.0195L81.1244 69.6808L80.4904 71.1238L80.1734 71.4408C80.0493 71.521 79.86 71.5612 79.6049 71.5612L79.3097 71.5393L78.774 71.4191V72.6544L79.1676 72.7419L79.6268 72.7638C80.4429 72.7638 81.0189 72.5378 81.354 72.0859C81.6893 71.6268 82.2651 70.3623 83.0814 68.2923L85.6944 61.328H84.131ZM102.443 61.328H101.033V65.3185C101.033 66.1057 100.942 66.7289 100.76 67.188C100.41 68.0336 99.7574 68.4563 98.8027 68.4563C98.1321 68.4563 97.6766 68.2121 97.4361 67.7238C97.3049 67.4615 97.2393 67.1261 97.2393 66.718V61.328H95.7961V66.8383C95.7961 67.5306 95.9091 68.0846 96.1351 68.5C96.5651 69.2725 97.3668 69.6589 98.5404 69.6589C99.2983 69.6589 99.9398 69.4474 100.464 69.0249C100.734 68.8134 100.957 68.5546 101.131 68.2485L101.12 69.4402H102.443V61.328ZM128.66 61.5576C128.106 61.288 127.534 61.1532 126.944 61.1532C125.763 61.1532 124.812 61.5576 124.09 62.3668C123.361 63.1829 122.997 64.24 122.997 65.5372C122.997 66.8638 123.358 67.8951 124.079 68.6312C124.801 69.36 125.679 69.7244 126.714 69.7244C127.144 69.7244 127.527 69.6844 127.862 69.6042C128.489 69.4657 129.014 69.1923 129.436 68.7842C129.691 68.5583 129.925 68.2632 130.136 67.8987C130.34 67.527 130.46 67.1917 130.497 66.8929H129.108C129.014 67.25 128.842 67.5708 128.594 67.8549C128.157 68.3215 127.574 68.5546 126.845 68.5546C126.058 68.5546 125.478 68.3032 125.107 67.8004C124.735 67.3046 124.535 66.6451 124.505 65.8215H130.617C130.617 65.0051 130.573 64.4074 130.486 64.0285C130.391 63.4891 130.205 63.0155 129.928 62.6072C129.637 62.1772 129.214 61.8274 128.66 61.5576ZM126.856 62.334C127.745 62.334 128.383 62.6619 128.769 63.3178C128.973 63.6751 129.105 64.1487 129.163 64.7391H124.538C124.567 64.0395 124.797 63.4672 125.227 63.0227C125.664 62.5636 126.207 62.334 126.856 62.334ZM114.447 63.6132C114.447 63.8463 114.418 64.0212 114.36 64.1378C114.251 64.3638 114.032 64.4951 113.704 64.5314L111.452 64.8046C110.665 64.8995 110.027 65.1546 109.539 65.57C109.058 65.9855 108.817 66.5649 108.817 67.3083C108.817 68.0008 109.065 68.5766 109.561 69.0357C110.049 69.4876 110.683 69.7136 111.463 69.7136C112.111 69.7136 112.705 69.5787 113.245 69.3091C113.784 69.0466 114.196 68.7332 114.48 68.3689C114.531 68.6895 114.611 68.9372 114.721 69.1123C114.947 69.4474 115.3 69.6151 115.781 69.6151L116.251 69.5934L116.754 69.4729V68.4672L116.503 68.511L116.295 68.5219C116.098 68.5219 115.971 68.478 115.913 68.3906C115.854 68.3032 115.825 68.1902 115.825 68.0517V63.3725C115.825 62.6072 115.519 62.0423 114.907 61.678C114.287 61.3136 113.485 61.1312 112.501 61.1312C111.656 61.1312 110.909 61.328 110.26 61.7217C109.619 62.1153 109.284 62.8112 109.254 63.8097H110.566C110.625 63.3944 110.738 63.0774 110.905 62.8587C111.219 62.4797 111.743 62.2902 112.48 62.2902C113.106 62.2902 113.595 62.3959 113.944 62.6072C114.28 62.8112 114.447 63.1466 114.447 63.6132ZM113.748 65.581C114.017 65.5153 114.24 65.4278 114.415 65.3185V66.4119C114.415 67.25 114.021 67.8512 113.234 68.2157C112.767 68.4417 112.286 68.5546 111.791 68.5546C111.383 68.5546 111.029 68.4417 110.73 68.2157C110.439 67.9898 110.293 67.68 110.293 67.2866C110.293 66.7689 110.512 66.39 110.949 66.1495C111.204 66.011 111.587 65.9089 112.097 65.8434L113.748 65.581ZM120.318 61.7436C119.888 62.1297 119.619 62.4578 119.509 62.7274V61.328H118.165V69.4402H119.575V64.7719C119.575 64.1961 119.768 63.6895 120.154 63.2523C120.533 62.8076 121.076 62.5853 121.783 62.5853L122.253 62.6291V61.1859L121.925 61.1532C121.889 61.1532 121.845 61.1532 121.794 61.1532C121.233 61.1532 120.741 61.35 120.318 61.7436ZM137.122 59.0651V61.328H135.985V62.4432H137.122V67.8112C137.122 68.3287 137.242 68.7515 137.483 69.0793C137.716 69.4074 138.161 69.5715 138.817 69.5715L139.396 69.5387L139.899 69.4402V68.3578L139.396 68.3906C139.141 68.3906 138.959 68.3615 138.849 68.3032C138.653 68.2085 138.554 68.0189 138.554 67.7346V62.4432H139.899V61.328H138.554V59.0651H137.122ZM142.72 58.2778H141.309V69.4402H142.72V65.1436C142.72 64.0576 142.956 63.3214 143.43 62.9353C143.904 62.5489 144.432 62.3557 145.015 62.3557C145.722 62.3557 146.203 62.578 146.458 63.0227C146.619 63.2997 146.699 63.737 146.699 64.3346V69.4402H148.153V64.2361C148.153 63.4419 148.033 62.8187 147.792 62.3668C147.362 61.5432 146.539 61.1312 145.321 61.1312C144.644 61.1312 144.075 61.2772 143.616 61.5687C143.354 61.7363 143.055 62.0242 142.72 62.4323V58.2778ZM155.412 61.5576C154.858 61.288 154.286 61.1532 153.696 61.1532C152.515 61.1532 151.564 61.5576 150.843 62.3668C150.114 63.1829 149.749 64.24 149.749 65.5372C149.749 66.8638 150.11 67.8951 150.832 68.6312C151.553 69.36 152.431 69.7244 153.466 69.7244C153.896 69.7244 154.279 69.6844 154.614 69.6042C155.241 69.4657 155.766 69.1923 156.189 68.7842C156.444 68.5583 156.677 68.2632 156.888 67.8987C157.092 67.527 157.213 67.1917 157.249 66.8929H155.861C155.766 67.25 155.595 67.5708 155.347 67.8549C154.91 68.3215 154.326 68.5546 153.598 68.5546C152.81 68.5546 152.231 68.3032 151.859 67.8004C151.488 67.3046 151.287 66.6451 151.258 65.8215H157.369C157.369 65.0051 157.326 64.4074 157.238 64.0285C157.143 63.4891 156.958 63.0155 156.681 62.6072C156.389 62.1772 155.966 61.8274 155.412 61.5576ZM153.608 62.334C154.498 62.334 155.136 62.6619 155.522 63.3178C155.726 63.6751 155.857 64.1487 155.915 64.7391H151.291C151.32 64.0395 151.55 63.4672 151.98 63.0227C152.417 62.5636 152.96 62.334 153.608 62.334ZM178.546 61.0985C177.343 61.0985 176.389 61.5029 175.682 62.3121C174.967 63.1138 174.61 64.1961 174.61 65.5591C174.61 66.8272 174.949 67.8404 175.627 68.5985C176.298 69.3491 177.209 69.7244 178.36 69.7244C179.738 69.7244 180.751 69.298 181.4 68.4453C182.055 67.5925 182.383 66.5176 182.383 65.2202C182.383 63.8644 182.012 62.8368 181.268 62.1372C180.525 61.4446 179.617 61.0985 178.546 61.0985ZM176.644 63.2414C177.03 62.6072 177.65 62.2902 178.502 62.2902C179.464 62.2902 180.142 62.6619 180.536 63.4053C180.784 63.8791 180.908 64.4951 180.908 65.2529C180.908 66.0838 180.736 66.8419 180.394 67.527C180.044 68.2121 179.41 68.5546 178.491 68.5546C177.646 68.5546 177.03 68.2668 176.644 67.691C176.257 67.1153 176.064 66.3972 176.064 65.5372C176.064 64.6408 176.257 63.8755 176.644 63.2414ZM169.089 61.328H167.504L165.875 67.7238L164.257 61.328H162.715L165.132 69.4402H166.597L168.258 63.1649L169.964 69.4402H171.429L173.867 61.328H172.457L170.74 67.68L169.089 61.328ZM188.233 62.6291V61.1859L187.904 61.1532C187.868 61.1532 187.824 61.1532 187.773 61.1532C187.212 61.1532 186.72 61.35 186.297 61.7436C185.867 62.1297 185.598 62.4578 185.488 62.7274V61.328H184.144V69.4402H185.554V64.7719C185.554 64.1961 185.747 63.6895 186.133 63.2523C186.512 62.8076 187.055 62.5853 187.762 62.5853L188.233 62.6291ZM190.9 58.3217H189.49V69.4402H190.9V58.3217ZM199.832 58.2778H198.476V62.3776C198.163 61.9987 197.879 61.7327 197.624 61.5795C197.194 61.3172 196.658 61.1859 196.017 61.1859C194.865 61.1859 193.976 61.6197 193.349 62.487C192.73 63.3542 192.42 64.3783 192.42 65.5591C192.42 66.82 192.762 67.8295 193.447 68.5874C194.125 69.3455 194.931 69.7244 195.864 69.7244C196.439 69.7244 196.953 69.6151 197.405 69.3966C197.85 69.1706 198.236 68.8098 198.564 68.3142V69.4402H199.832V58.2778ZM194.573 63.1649C195.011 62.64 195.583 62.3776 196.29 62.3776C196.924 62.3776 197.456 62.6255 197.886 63.121C198.316 63.6093 198.531 64.3638 198.531 65.3842C198.531 66.4046 198.323 67.1844 197.908 67.7238C197.493 68.2704 196.957 68.5438 196.301 68.5438C195.463 68.5438 194.858 68.2485 194.486 67.6583C194.1 67.0751 193.907 66.35 193.907 65.4825C193.907 64.4621 194.129 63.6895 194.573 63.1649Z" fill="white"/>
</g>
<defs>
<linearGradient id="paint0_linear_1174_473" x1="6.13055" y1="52.4519" x2="51.173" y2="15.4771" gradientUnits="userSpaceOnUse">
<stop stop-color="#0C6D7A"/>
<stop offset="0.00784314" stop-color="#0C6F7C"/>
<stop offset="0.239216" stop-color="#14BCD4"/>
<stop offset="0.482353" stop-color="#06DEFC"/>
<stop offset="0.545098" stop-color="#04E0FF"/>
<stop offset="0.831373" stop-color="#0FBBD4"/>
<stop offset="1" stop-color="#0D7684"/>
</linearGradient>
<linearGradient id="paint1_linear_1174_473" x1="1.767" y1="9.37079" x2="26.4975" y2="87.1177" gradientUnits="userSpaceOnUse">
<stop stop-color="#0C6D7A"/>
<stop offset="0.00784314" stop-color="#0C6F7C"/>
<stop offset="0.239216" stop-color="#14BCD4"/>
<stop offset="0.509804" stop-color="#04E0FF"/>
<stop offset="0.831373" stop-color="#0FBBD4"/>
<stop offset="1" stop-color="#0D7684"/>
</linearGradient>
<linearGradient id="paint2_linear_1174_473" x1="48.9393" y1="-11.4223" x2="59.3287" y2="66.8037" gradientUnits="userSpaceOnUse">
<stop stop-color="#0C6D7A"/>
<stop offset="0.00784314" stop-color="#0C6F7C"/>
<stop offset="0.239216" stop-color="#14BCD4"/>
<stop offset="0.509804" stop-color="#04E0FF"/>
<stop offset="0.831373" stop-color="#0FBBD4"/>
<stop offset="1" stop-color="#0D7684"/>
</linearGradient>
<clipPath id="clip0_1174_473">
<rect width="200" height="76.5958" fill="white"/>
</clipPath>
</defs>
</svg>
