<svg width="94" height="36" viewBox="0 0 94 36" fill="none" xmlns="http://www.w3.org/2000/svg">
<path d="M27.8859 7.36893C28.5824 7.67244 29.1695 8.074 29.6471 8.57363C28.8375 7.68532 27.8029 6.92632 26.5434 6.29662L18.1837 2.25844C15.8434 1.24329 13.4188 1.34302 10.9098 2.55764C7.38062 4.47006 4.34051 6.80277 1.78952 9.55577C0.0714642 11.4094 -0.409508 13.8283 0.346605 16.8124L2.24258 25.5437C2.58767 26.6777 2.91013 27.5914 3.20996 28.2846C2.62542 26.7298 3.01177 24.6137 4.36898 21.9366C4.68329 21.4123 5.00863 20.9 5.34501 20.3996C6.67221 18.4218 8.6581 16.2397 11.3027 13.8535C12.6982 12.5939 14.0817 11.4996 15.4531 10.5706C16.9364 9.56527 18.5471 8.65476 20.2853 7.83909C20.7706 7.61092 21.2612 7.41865 21.7572 7.2623C22.1727 7.13233 22.5919 7.02735 23.015 6.94738C23.9066 6.78011 24.7724 6.73408 25.6125 6.80929C26.4396 6.88253 27.1974 7.06907 27.8859 7.36893Z" fill="url(#paint0_linear_1_14558)"/>
<path d="M28.8641 31.1967C29.2587 31.0162 29.614 30.8087 29.9302 30.5742C28.3782 31.2764 26.1027 30.8196 23.1037 29.2038L5.34504 20.3994C5.00866 20.8998 4.68332 21.4121 4.36902 21.9363C3.0118 24.6135 2.62546 26.7295 3.20999 28.2844C3.30159 28.4963 3.40104 28.7013 3.50832 28.8994C3.51037 28.9029 3.51293 28.9074 3.516 28.9127C3.98581 29.7714 4.63952 30.5423 5.47712 31.2253C6.58359 32.1242 7.93444 32.9305 9.52967 33.6441C10.738 34.1852 12.3136 34.7624 14.2564 35.3758C15.3884 35.7376 16.3692 35.9419 17.1989 35.9889C18.1587 36.0422 19.1081 35.9054 20.0469 35.5785L28.8641 31.1967Z" fill="url(#paint1_linear_1_14558)"/>
<path d="M29.6472 8.57375C29.1696 8.07412 28.5826 7.67255 27.8861 7.36905C27.1976 7.06919 26.4398 6.88264 25.6127 6.80941C24.7726 6.7342 23.9067 6.78022 23.0152 6.9475C22.5921 7.02747 22.1728 7.13245 21.7573 7.26242C24.1484 14.8839 24.5973 22.1978 23.1038 29.2041C26.1028 30.8199 28.3783 31.2767 29.9303 30.5745C31.0394 29.7462 31.7366 28.5871 32.0218 27.0974C32.4556 24.8577 32.5862 22.1719 32.4137 19.0399C32.2621 16.2717 31.9259 13.8069 31.4049 11.6456C31.3012 11.2162 31.1421 10.7974 30.9277 10.3893C30.7604 10.0687 30.5296 9.70488 30.2355 9.29787C30.0554 9.04729 29.8593 8.80591 29.6472 8.57375Z" fill="url(#paint2_linear_1_14558)"/>
<path d="M19.4889 12.7113C19.1189 12.8483 18.7883 13.0402 18.4972 13.2868C18.1957 13.5437 17.9319 13.8555 17.7058 14.222C17.4798 14.5851 17.2759 15.003 17.0944 15.4758L17.0173 13.0607L16.9145 12.7781L16.6319 12.701H16.0461V24.2007H17.1509V16.7655L17.7161 15.3884C17.9182 14.9876 18.1546 14.6553 18.4252 14.3916C18.7061 14.1209 19.0161 13.9188 19.3553 13.7852C19.7012 13.6482 20.0952 13.5797 20.5371 13.5797L21.7138 13.739C21.8165 13.739 21.8868 13.679 21.9245 13.5591L22.0169 12.7884L21.4055 12.5674L20.7067 12.5109C20.2545 12.5109 19.8485 12.5777 19.4889 12.7113ZM31.9494 13.8315C31.5418 13.3999 31.0605 13.071 30.5056 12.8449C29.9472 12.6291 29.3443 12.5212 28.6968 12.5212C27.885 12.5212 27.1553 12.6634 26.5079 12.9477C25.8673 13.2354 25.3261 13.6311 24.8842 14.1346C24.4388 14.6382 24.0997 15.236 23.8668 15.9279C23.627 16.6268 23.5071 17.3907 23.5071 18.2197C23.5071 19.196 23.6338 20.0609 23.8873 20.8145C24.1374 21.575 24.4919 22.219 24.951 22.7466C25.4168 23.2707 25.9735 23.6681 26.6209 23.9387C27.2684 24.2127 27.9826 24.3498 28.7636 24.3498L30.0637 24.2213L31.2609 23.8873L32.2732 23.3632C32.5815 23.1679 32.8264 22.9538 33.0079 22.7209L32.7151 22.3509L32.4787 22.2379L31.415 22.8596L30.3565 23.2861C29.9283 23.406 29.4282 23.466 28.8561 23.466C28.2087 23.466 27.6212 23.358 27.0937 23.1422C26.5696 22.9161 26.1225 22.5804 25.7525 22.1351C25.3826 21.6898 25.0965 21.14 24.8944 20.4857C24.6992 19.8314 24.6016 19.0761 24.6016 18.2197V17.9936H32.9617L33.1981 17.9011L33.27 17.5517C33.27 16.7467 33.1535 16.0324 32.9206 15.409C32.6774 14.7855 32.3537 14.2597 31.9494 13.8315ZM31.2815 14.3916C31.5966 14.7307 31.8415 15.1452 32.0162 15.6351C32.1875 16.1249 32.2732 16.6781 32.2732 17.2948H24.6581C24.7266 16.6918 24.8653 16.1455 25.0743 15.6556C25.2764 15.176 25.5504 14.7632 25.8964 14.4173C26.2424 14.0713 26.6501 13.8041 27.1194 13.6157C27.5852 13.4273 28.1145 13.3331 28.7071 13.3331C29.2347 13.3331 29.716 13.4273 30.151 13.6157C30.5895 13.7972 30.9663 14.0559 31.2815 14.3916ZM35.9317 14.335L36.1372 14.6639L36.2708 14.8232L36.4764 14.8797C36.5963 14.8797 36.7384 14.8009 36.9028 14.6433L37.5708 14.1346L38.5523 13.6259C38.9428 13.4752 39.4172 13.3999 39.9756 13.3999C40.8697 13.3999 41.5462 13.6859 42.0053 14.258C42.4643 14.83 42.6938 15.647 42.6938 16.709V17.9165C41.3921 17.9439 40.2788 18.0518 39.3539 18.2402C38.4187 18.4218 37.6582 18.6667 37.0724 18.975C36.4798 19.2833 36.043 19.6447 35.7621 20.0592C35.4846 20.4806 35.3459 20.9327 35.3459 21.4157C35.3459 21.9399 35.4333 22.3903 35.608 22.7671C35.7792 23.1371 36.0122 23.442 36.3068 23.6818C36.5911 23.9216 36.9183 24.098 37.2882 24.211C37.6548 24.3241 38.035 24.3806 38.4289 24.3806C38.9017 24.3806 39.3333 24.3361 39.7238 24.247C40.1143 24.1545 40.4792 24.0226 40.8183 23.8513L41.7997 23.2296L42.74 22.3972L42.9096 23.8719C42.961 24.0911 43.1032 24.2007 43.3361 24.2007H43.778V16.709C43.778 16.0684 43.6992 15.4878 43.5416 14.9671C43.3909 14.4498 43.1614 14.0096 42.8531 13.6465C42.5516 13.28 42.168 12.9991 41.7021 12.8038C41.2431 12.6085 40.7052 12.5109 40.0886 12.5109C39.2459 12.5109 38.4923 12.6651 37.8278 12.9734C37.1666 13.2817 36.5346 13.7356 35.9317 14.335ZM36.7795 20.275C37.0262 19.9564 37.4064 19.6807 37.9202 19.4477C38.4307 19.2148 39.0815 19.0315 39.8728 18.8979C40.6607 18.7678 41.601 18.6804 42.6938 18.6359V21.6521L41.8819 22.4177L40.9776 23.0395C40.6624 23.2107 40.3164 23.3461 39.9396 23.4454C39.5628 23.5413 39.1535 23.5893 38.7116 23.5893L37.838 23.4557C37.5606 23.3735 37.3173 23.2416 37.1084 23.06C36.896 22.8785 36.7264 22.6489 36.5997 22.3715C36.4729 22.0872 36.4096 21.7532 36.4096 21.3695C36.4096 20.9618 36.5329 20.597 36.7795 20.275ZM48.6492 7.38281H47.5444V24.2007H48.6492V7.38281Z" fill="#424242"/>
<path d="M58.8696 12.701H57.7751V24.2007H58.8696V12.701ZM53.7517 7.38281H52.647V24.2007H53.7517V7.38281ZM59.2652 8.34369L59.0391 8.00456L58.7103 7.79388L58.3197 7.71167L57.9344 7.79388L57.6055 8.00456L57.3794 8.34369L57.3024 8.73935L57.3794 9.12472L57.6055 9.43817L57.9344 9.66425L58.3197 9.74133L58.7103 9.66425L59.0391 9.43817L59.2652 9.12472L59.3423 8.73935L59.2652 8.34369ZM70.9499 12.7781L70.8009 12.9837L66.9882 22.058L66.6953 23.06L66.4127 22.058L62.6206 12.9837L62.4716 12.7884L62.2146 12.701H61.3463L66.1969 24.2007H67.168L72.0238 12.701H71.1863L70.9499 12.7781ZM82.1156 13.8315C81.708 13.3999 81.2267 13.071 80.6717 12.8449C80.1133 12.6291 79.5104 12.5212 78.863 12.5212C78.0511 12.5212 77.3215 12.6634 76.6741 12.9477C76.0335 13.2354 75.4922 13.6311 75.0503 14.1346C74.605 14.6382 74.2659 15.236 74.0329 15.9279C73.7931 16.6268 73.6732 17.3907 73.6732 18.2197C73.6732 19.196 73.8 20.0609 74.0535 20.8145C74.3035 21.575 74.6581 22.219 75.1171 22.7466C75.583 23.2707 76.1397 23.6681 76.7871 23.9387C77.4345 24.2127 78.1488 24.3498 78.9298 24.3498L80.2298 24.2213L81.4271 23.8873L82.4393 23.3632C82.7476 23.1679 82.9926 22.9538 83.1741 22.7209L82.8812 22.3509L82.6449 22.2379L81.5812 22.8596L80.5227 23.2861C80.0945 23.406 79.5944 23.466 79.0223 23.466C78.3749 23.466 77.7874 23.358 77.2598 23.1422C76.7357 22.9161 76.2887 22.5804 75.9187 22.1351C75.5487 21.6898 75.2627 21.14 75.0606 20.4857C74.8653 19.8314 74.7677 19.0761 74.7677 18.2197V17.9936H83.1279L83.3642 17.9011L83.4362 17.5517C83.4362 16.7467 83.3197 16.0324 83.0868 15.409C82.8435 14.7855 82.5198 14.2597 82.1156 13.8315ZM81.4476 14.3916C81.7628 14.7307 82.0077 15.1452 82.1824 15.6351C82.3537 16.1249 82.4393 16.6781 82.4393 17.2948H74.8242C74.8927 16.6918 75.0315 16.1455 75.2404 15.6556C75.4426 15.176 75.7166 14.7632 76.0626 14.4173C76.4086 14.0713 76.8162 13.8041 77.2855 13.6157C77.7514 13.4273 78.2807 13.3331 78.8733 13.3331C79.4008 13.3331 79.8821 13.4273 80.3172 13.6157C80.7556 13.7972 81.1325 14.0559 81.4476 14.3916ZM87.6188 14.0113C87.8586 13.8058 88.1515 13.6431 88.4975 13.5232C88.8366 13.4033 89.2169 13.3433 89.6382 13.3433C90.0972 13.3433 90.4877 13.393 90.8098 13.4924L91.6268 13.8161L92.156 14.1449L92.4797 14.2785C92.5928 14.2785 92.6801 14.2271 92.7418 14.1244L92.9781 13.739C92.526 13.3245 92.0293 13.0162 91.488 12.8141C90.9468 12.6188 90.3267 12.5212 89.6279 12.5212C89.0387 12.5212 88.5078 12.6034 88.035 12.7678C87.5691 12.9425 87.1701 13.1721 86.8378 13.4564C86.5158 13.7441 86.264 14.0747 86.0824 14.4481C85.9112 14.8249 85.8255 15.2171 85.8255 15.6248C85.8255 16.1044 85.9146 16.5034 86.0927 16.822C86.2811 17.144 86.5261 17.4146 86.8275 17.6339C87.129 17.86 87.4681 18.0484 87.8449 18.1991L90.1931 18.9647L91.2157 19.4169C91.5171 19.595 91.7586 19.8091 91.9402 20.0592C92.1286 20.3161 92.2228 20.6364 92.2228 21.0201C92.2228 21.3661 92.1594 21.6966 92.0327 22.0118C91.9025 22.3201 91.7141 22.5907 91.4675 22.8237C91.2242 23.0566 90.9194 23.2416 90.5528 23.3786C90.176 23.5122 89.7461 23.579 89.2631 23.579C88.7458 23.579 88.3142 23.5156 87.9682 23.3889L87.0741 22.9932L86.5141 22.5976C86.3702 22.4708 86.2452 22.4074 86.139 22.4074L85.9386 22.4537L85.8101 22.5976L85.5532 22.9829C86.0191 23.4043 86.5415 23.7417 87.1204 23.9952C87.7062 24.2521 88.4067 24.3806 89.222 24.3806C89.8694 24.3806 90.4415 24.2898 90.9382 24.1082C91.4418 23.9233 91.8631 23.6715 92.2023 23.3529C92.5482 23.0378 92.8103 22.6661 92.9884 22.2379C93.1631 21.8097 93.2505 21.3421 93.2505 20.8351C93.2505 20.3795 93.1597 19.989 92.9781 19.6635C92.7897 19.3415 92.5482 19.0675 92.2536 18.8414C91.9556 18.6153 91.6148 18.4269 91.2311 18.2762L88.8829 17.4952L87.8552 17.0584C87.5606 16.8905 87.3191 16.6867 87.1307 16.4469C86.9525 16.2071 86.8635 15.9057 86.8635 15.5426C86.8635 15.2514 86.9268 14.9739 87.0536 14.7101C87.1906 14.4395 87.379 14.2066 87.6188 14.0113Z" fill="#10DCF6"/>
<path d="M42.4249 28.7171C41.8597 28.7171 41.4109 28.9072 41.0787 29.2874C40.7429 29.6642 40.5751 30.1729 40.5751 30.8135C40.5751 31.4096 40.7344 31.8857 41.053 32.242C41.3681 32.5948 41.7963 32.7712 42.3376 32.7712C42.985 32.7712 43.4612 32.5708 43.766 32.1701C44.0743 31.7693 44.2285 31.264 44.2285 30.6542C44.2285 30.0171 44.0538 29.5341 43.7044 29.2052C43.355 28.8798 42.9285 28.7171 42.4249 28.7171ZM41.5308 29.7242C41.7124 29.4262 42.0036 29.2771 42.4044 29.2771C42.8565 29.2771 43.1751 29.4518 43.3601 29.8013C43.4766 30.0239 43.5348 30.3134 43.5348 30.6696C43.5348 31.0602 43.4543 31.4164 43.2933 31.7384C43.1289 32.0604 42.8308 32.2214 42.3992 32.2214C42.0019 32.2214 41.7124 32.0861 41.5308 31.8155C41.3493 31.5449 41.2585 31.2075 41.2585 30.8032C41.2585 30.3819 41.3493 30.0222 41.5308 29.7242ZM39.5423 28.825L38.4786 31.9286L37.4201 28.825H36.6699L38.1292 32.7507L37.8312 33.429L37.6822 33.578C37.6239 33.6157 37.5349 33.6345 37.415 33.6345L37.2763 33.6242L37.0245 33.5677V34.1483L37.2095 34.1894L37.4253 34.1997C37.8089 34.1997 38.0796 34.0935 38.2371 33.8811C38.3947 33.6653 38.6653 33.071 39.049 32.0981L40.2771 28.825H39.5423ZM48.1491 28.825H47.4862V30.7005C47.4862 31.0704 47.4434 31.3633 47.3578 31.5791C47.1933 31.9765 46.8867 32.1752 46.438 32.1752C46.1228 32.1752 45.9087 32.0604 45.7957 31.8309C45.734 31.7076 45.7032 31.55 45.7032 31.3582V28.825H45.0249V31.4147C45.0249 31.7401 45.078 32.0005 45.1842 32.1957C45.3863 32.5589 45.7631 32.7404 46.3147 32.7404C46.6709 32.7404 46.9724 32.6411 47.219 32.4424C47.3458 32.343 47.4503 32.2214 47.5325 32.0776L47.5273 32.6376H48.1491V28.825ZM60.4709 28.9329C60.2106 28.8061 59.9417 28.7428 59.6642 28.7428C59.1092 28.7428 58.6622 28.9329 58.3231 29.3131C57.9805 29.6968 57.8092 30.1935 57.8092 30.8032C57.8092 31.4267 57.9788 31.9114 58.3179 32.2574C58.6571 32.6 59.0698 32.7712 59.5563 32.7712C59.7584 32.7712 59.9382 32.7524 60.0958 32.7147C60.3904 32.6496 60.6371 32.5212 60.8357 32.3293C60.9556 32.2232 61.0653 32.0844 61.1646 31.9131C61.2605 31.7384 61.317 31.5809 61.3342 31.4404H60.6816C60.6371 31.6083 60.5566 31.759 60.4401 31.8926C60.2345 32.1118 59.9605 32.2214 59.6179 32.2214C59.248 32.2214 58.9756 32.1033 58.8009 31.8669C58.6262 31.6339 58.532 31.3239 58.5183 30.9368H61.3907C61.3907 30.5532 61.3701 30.2723 61.329 30.0941C61.2845 29.8407 61.1971 29.618 61.067 29.4262C60.9299 29.224 60.7313 29.0596 60.4709 28.9329ZM59.6231 29.2977C60.041 29.2977 60.3407 29.4518 60.5223 29.7602C60.6182 29.928 60.6799 30.1507 60.7073 30.4281H58.5337C58.5474 30.0993 58.6554 29.8304 58.8575 29.6214C59.063 29.4056 59.3182 29.2977 59.6231 29.2977ZM53.791 29.8989C53.791 30.0085 53.7773 30.0907 53.7499 30.1455C53.6985 30.2517 53.5958 30.3134 53.4416 30.3305L52.3831 30.459C52.0131 30.5035 51.7134 30.6234 51.4839 30.8187C51.2578 31.0139 51.1447 31.2863 51.1447 31.6357C51.1447 31.9611 51.2612 32.2317 51.4942 32.4475C51.7237 32.6599 52.0217 32.7661 52.3882 32.7661C52.6931 32.7661 52.9723 32.7027 53.2258 32.576C53.4793 32.4527 53.6728 32.3054 53.8064 32.1341C53.8304 32.2848 53.8681 32.4013 53.9195 32.4835C54.0257 32.6411 54.1918 32.7199 54.4179 32.7199L54.6388 32.7096L54.8752 32.6531V32.1803L54.757 32.2009L54.6594 32.206C54.5669 32.206 54.507 32.1855 54.4796 32.1444C54.4522 32.1033 54.4385 32.0502 54.4385 31.9851V29.7858C54.4385 29.4262 54.2946 29.1607 54.0068 28.9894C53.7157 28.8181 53.3388 28.7325 52.8764 28.7325C52.479 28.7325 52.1279 28.825 51.823 29.0099C51.5216 29.1949 51.364 29.5221 51.3503 29.9914H51.9669C51.9943 29.7961 52.0474 29.6471 52.1262 29.5443C52.2735 29.3662 52.5201 29.2771 52.8661 29.2771C53.1607 29.2771 53.3902 29.3268 53.5546 29.4262C53.7122 29.5221 53.791 29.6797 53.791 29.8989ZM53.4622 30.8238C53.5889 30.793 53.6934 30.7519 53.7756 30.7005V31.2143C53.7756 31.6083 53.5906 31.8909 53.2207 32.0621C53.0014 32.1683 52.7753 32.2214 52.5424 32.2214C52.3506 32.2214 52.1844 32.1683 52.044 32.0621C51.9069 31.956 51.8384 31.8104 51.8384 31.6254C51.8384 31.3822 51.9412 31.204 52.1467 31.091C52.2666 31.0259 52.4465 30.9779 52.6863 30.9471L53.4622 30.8238ZM56.5503 29.0202C56.3482 29.2018 56.2215 29.3559 56.1701 29.4827V28.825H55.5381V32.6376H56.2009V30.4436C56.2009 30.1729 56.2917 29.9349 56.4733 29.7293C56.6514 29.5204 56.9066 29.4159 57.2389 29.4159L57.4598 29.4364V28.7582L57.3057 28.7428C57.2885 28.7428 57.268 28.7428 57.244 28.7428C56.9802 28.7428 56.749 28.8352 56.5503 29.0202ZM64.448 27.7613V28.825H63.9136V29.3491H64.448V31.872C64.448 32.1152 64.5045 32.3139 64.6176 32.4681C64.7272 32.6222 64.9362 32.6993 65.2445 32.6993L65.5168 32.6839L65.7532 32.6376V32.1289L65.5168 32.1444C65.3969 32.1444 65.3113 32.1307 65.2599 32.1033C65.1674 32.0587 65.1212 31.9697 65.1212 31.8361V29.3491H65.7532V28.825H65.1212V27.7613H64.448ZM67.0789 27.3914H66.416V32.6376H67.0789V30.6183C67.0789 30.1078 67.1902 29.7619 67.4129 29.5803C67.6355 29.3988 67.8839 29.308 68.1579 29.308C68.4902 29.308 68.7163 29.4125 68.8362 29.6214C68.9116 29.7516 68.9492 29.9571 68.9492 30.238V32.6376H69.6327V30.1918C69.6327 29.8184 69.5761 29.5255 69.4631 29.3131C69.261 28.926 68.8739 28.7325 68.3018 28.7325C67.9832 28.7325 67.716 28.801 67.5002 28.938C67.3769 29.0168 67.2365 29.1521 67.0789 29.3439V27.3914ZM73.0445 28.9329C72.7842 28.8061 72.5153 28.7428 72.2378 28.7428C71.6829 28.7428 71.2358 28.9329 70.8967 29.3131C70.5541 29.6968 70.3829 30.1935 70.3829 30.8032C70.3829 31.4267 70.5524 31.9114 70.8916 32.2574C71.2307 32.6 71.6435 32.7712 72.1299 32.7712C72.332 32.7712 72.5119 32.7524 72.6694 32.7147C72.964 32.6496 73.2107 32.5212 73.4094 32.3293C73.5293 32.2232 73.6389 32.0844 73.7382 31.9131C73.8341 31.7384 73.8907 31.5809 73.9078 31.4404H73.2552C73.2107 31.6083 73.1302 31.759 73.0137 31.8926C72.8082 32.1118 72.5341 32.2214 72.1916 32.2214C71.8216 32.2214 71.5493 32.1033 71.3746 31.8669C71.1999 31.6339 71.1057 31.3239 71.092 30.9368H73.9643C73.9643 30.5532 73.9438 30.2723 73.9026 30.0941C73.8581 29.8407 73.7708 29.618 73.6406 29.4262C73.5036 29.224 73.3049 29.0596 73.0445 28.9329ZM72.1967 29.2977C72.6146 29.2977 72.9144 29.4518 73.0959 29.7602C73.1918 29.928 73.2535 30.1507 73.2809 30.4281H71.1074C71.1211 30.0993 71.229 29.8304 71.4311 29.6214C71.6366 29.4056 71.8918 29.2977 72.1967 29.2977ZM83.9174 28.7171C83.3521 28.7171 82.9034 28.9072 82.5711 29.2874C82.2354 29.6642 82.0675 30.1729 82.0675 30.8135C82.0675 31.4096 82.2268 31.8857 82.5454 32.242C82.8606 32.5948 83.2888 32.7712 83.83 32.7712C84.4774 32.7712 84.9536 32.5708 85.2585 32.1701C85.5668 31.7693 85.7209 31.264 85.7209 30.6542C85.7209 30.0171 85.5462 29.5341 85.1968 29.2052C84.8474 28.8798 84.4209 28.7171 83.9174 28.7171ZM83.0233 29.7242C83.2048 29.4262 83.496 29.2771 83.8968 29.2771C84.349 29.2771 84.6676 29.4518 84.8525 29.8013C84.969 30.0239 85.0273 30.3134 85.0273 30.6696C85.0273 31.0602 84.9467 31.4164 84.7857 31.7384C84.6213 32.0604 84.3233 32.2214 83.8917 32.2214C83.4943 32.2214 83.2048 32.0861 83.0233 31.8155C82.8417 31.5449 82.7509 31.2075 82.7509 30.8032C82.7509 30.3819 82.8417 30.0222 83.0233 29.7242ZM79.4727 28.825H78.7276L77.962 31.8309L77.2015 28.825H76.477L77.6126 32.6376H78.3011L79.0821 29.6882L79.8837 32.6376H80.5723L81.7181 28.825H81.0553L80.2486 31.8104L79.4727 28.825ZM88.47 29.4364V28.7582L88.3158 28.7428C88.2987 28.7428 88.2781 28.7428 88.2542 28.7428C87.9904 28.7428 87.7592 28.8352 87.5605 29.0202C87.3584 29.2018 87.2316 29.3559 87.1802 29.4827V28.825H86.5482V32.6376H87.2111V30.4436C87.2111 30.1729 87.3018 29.9349 87.4834 29.7293C87.6615 29.5204 87.9167 29.4159 88.249 29.4159L88.47 29.4364ZM89.7237 27.4119H89.0609V32.6376H89.7237V27.4119ZM93.9218 27.3914H93.2846V29.3183C93.1373 29.1401 93.0037 29.0151 92.8838 28.9431C92.6817 28.8198 92.43 28.7582 92.1285 28.7582C91.5873 28.7582 91.1693 28.962 90.8747 29.3696C90.5836 29.7773 90.438 30.2586 90.438 30.8135C90.438 31.4061 90.599 31.8806 90.921 32.2369C91.2396 32.5931 91.6181 32.7712 92.0566 32.7712C92.3272 32.7712 92.5687 32.7199 92.7811 32.6171C92.99 32.5109 93.1716 32.3413 93.3257 32.1084V32.6376H93.9218V27.3914ZM91.4502 29.6882C91.6558 29.4416 91.9247 29.3183 92.257 29.3183C92.555 29.3183 92.8051 29.4347 93.0072 29.6677C93.2093 29.8972 93.3103 30.2517 93.3103 30.7313C93.3103 31.2109 93.2127 31.5774 93.0174 31.8309C92.8222 32.0878 92.5704 32.2163 92.2621 32.2163C91.8682 32.2163 91.5838 32.0776 91.4091 31.8001C91.2276 31.526 91.1368 31.1852 91.1368 30.7776C91.1368 30.298 91.2413 29.9349 91.4502 29.6882Z" fill="#424242"/>
<path d="M16.8201 4.2455C16.8201 4.16671 16.791 4.09991 16.7328 4.0451C16.6814 3.9903 16.6163 3.96289 16.5375 3.96289C16.4587 3.96289 16.3902 3.9903 16.332 4.0451C16.2806 4.09991 16.2549 4.16671 16.2549 4.2455C16.2549 4.32429 16.2806 4.39109 16.332 4.4459C16.3902 4.50071 16.4587 4.52811 16.5375 4.52811C16.6163 4.52811 16.6814 4.50071 16.7328 4.4459C16.791 4.39109 16.8201 4.32429 16.8201 4.2455Z" fill="white"/>
<path d="M16.7716 2.79532C16.5137 3.63068 15.9198 3.99026 14.9899 3.87407L12.9883 3.54707L15.1117 4.00792C15.9423 4.2587 16.3024 4.84964 16.1922 5.78075L15.8635 7.79124L16.3154 5.66607C16.5721 4.83665 17.166 4.47706 18.0971 4.58732L20.0987 4.91432L17.9736 4.46236C17.1442 4.20566 16.7875 3.61232 16.9037 2.68235L17.2307 0.680742L16.7716 2.79532Z" fill="white" fill-opacity="0.301961"/>
<path d="M5.78324 25.9088C5.78324 25.83 5.75412 25.7632 5.69589 25.7084C5.6445 25.6536 5.57942 25.6262 5.50063 25.6262C5.42184 25.6262 5.35333 25.6536 5.29509 25.7084C5.24371 25.7632 5.21802 25.83 5.21802 25.9088C5.21802 25.9876 5.24371 26.0544 5.29509 26.1092C5.35333 26.164 5.42184 26.1914 5.50063 26.1914C5.57942 26.1914 5.6445 26.164 5.69589 26.1092C5.75412 26.0544 5.78324 25.9876 5.78324 25.9088Z" fill="white"/>
<path d="M6.80113 25.2125C5.98002 25.5108 5.33532 25.2545 4.86703 24.4434L3.92043 22.6513L4.83388 24.6212C5.13496 25.4343 4.8813 26.0776 4.07289 26.5513L2.27268 27.5019L4.2386 26.5804C5.05431 26.2847 5.69901 26.5411 6.1727 27.3495L7.1193 29.1416L6.19774 27.1756C5.90206 26.3599 6.15977 25.7179 6.97085 25.2497L8.76295 24.3031L6.80113 25.2125Z" fill="white" fill-opacity="0.301961"/>
<defs>
<linearGradient id="paint0_linear_1_14558" x1="2.88136" y1="24.6531" x2="24.0513" y2="7.27496" gradientUnits="userSpaceOnUse">
<stop stop-color="#0C6D7A"/>
<stop offset="0.00784314" stop-color="#0C6F7C"/>
<stop offset="0.239216" stop-color="#14BCD4"/>
<stop offset="0.482353" stop-color="#06DEFC"/>
<stop offset="0.545098" stop-color="#04E0FF"/>
<stop offset="0.831373" stop-color="#0FBBD4"/>
<stop offset="1" stop-color="#0D7684"/>
</linearGradient>
<linearGradient id="paint1_linear_1_14558" x1="0.829855" y1="4.40523" x2="12.4532" y2="40.9463" gradientUnits="userSpaceOnUse">
<stop stop-color="#0C6D7A"/>
<stop offset="0.00784314" stop-color="#0C6F7C"/>
<stop offset="0.239216" stop-color="#14BCD4"/>
<stop offset="0.509804" stop-color="#04E0FF"/>
<stop offset="0.831373" stop-color="#0FBBD4"/>
<stop offset="1" stop-color="#0D7684"/>
</linearGradient>
<linearGradient id="paint2_linear_1_14558" x1="23.0011" y1="-5.36753" x2="27.8841" y2="31.3987" gradientUnits="userSpaceOnUse">
<stop stop-color="#0C6D7A"/>
<stop offset="0.00784314" stop-color="#0C6F7C"/>
<stop offset="0.239216" stop-color="#14BCD4"/>
<stop offset="0.509804" stop-color="#04E0FF"/>
<stop offset="0.831373" stop-color="#0FBBD4"/>
<stop offset="1" stop-color="#0D7684"/>
</linearGradient>
</defs>
</svg>
